<svg width="56" height="56" viewBox="0 0 56 56" fill="none" xmlns="http://www.w3.org/2000/svg">
<rect width="56" height="56" rx="28" fill="#FFEAD5"/>
<g clip-path="url(#clip0_87_417)">
<path d="M35 27.125C36.0189 27.1242 37.024 27.3611 37.9354 27.8168C38.8467 28.2725 39.6393 28.9344 40.25 29.75" stroke="#F96619" stroke-width="2" stroke-linecap="round" stroke-linejoin="round"/>
<path d="M15.75 29.75C16.3607 28.9344 17.1533 28.2725 18.0646 27.8168C18.976 27.3611 19.9811 27.1242 21 27.125" stroke="#F96619" stroke-width="2" stroke-linecap="round" stroke-linejoin="round"/>
<path d="M28 34.125C30.4162 34.125 32.375 32.1662 32.375 29.75C32.375 27.3338 30.4162 25.375 28 25.375C25.5838 25.375 23.625 27.3338 23.625 29.75C23.625 32.1662 25.5838 34.125 28 34.125Z" stroke="#F96619" stroke-width="2" stroke-linecap="round" stroke-linejoin="round"/>
<path d="M21.875 37.625C22.5031 36.5591 23.3986 35.6755 24.4728 35.0617C25.547 34.4479 26.7628 34.125 28 34.125C29.2372 34.125 30.453 34.4479 31.5272 35.0617C32.6014 35.6755 33.4969 36.5591 34.125 37.625" stroke="#F96619" stroke-width="2" stroke-linecap="round" stroke-linejoin="round"/>
<path d="M31.6094 22.75C31.773 22.1162 32.1111 21.5411 32.5852 21.0898C33.0593 20.6385 33.6505 20.3293 34.2915 20.1971C34.9326 20.0649 35.5979 20.1152 36.2118 20.3421C36.8257 20.5691 37.3637 20.9636 37.7647 21.481C38.1656 21.9984 38.4135 22.6178 38.4801 23.2689C38.5467 23.9201 38.4293 24.5769 38.1414 25.1647C37.8535 25.7525 37.4065 26.2478 36.8512 26.5943C36.2959 26.9408 35.6545 27.1247 35 27.125" stroke="#F96619" stroke-width="2" stroke-linecap="round" stroke-linejoin="round"/>
<path d="M21 27.125C20.3455 27.1247 19.7041 26.9408 19.1488 26.5943C18.5935 26.2478 18.1465 25.7525 17.8586 25.1647C17.5707 24.5769 17.4533 23.9201 17.5199 23.2689C17.5865 22.6178 17.8344 21.9984 18.2353 21.481C18.6363 20.9636 19.1743 20.5691 19.7882 20.3421C20.4021 20.1152 21.0674 20.0649 21.7085 20.1971C22.3495 20.3293 22.9407 20.6385 23.4148 21.0898C23.8889 21.5411 24.227 22.1162 24.3906 22.75" stroke="#F96619" stroke-width="2" stroke-linecap="round" stroke-linejoin="round"/>
</g>
<defs>
<clipPath id="clip0_87_417">
<rect width="28" height="28" fill="white" transform="translate(14 14)"/>
</clipPath>
</defs>
</svg>
