<svg width="44" height="44" viewBox="0 0 44 44" fill="none" xmlns="http://www.w3.org/2000/svg">
<g filter="url(#filter0_d_87_439)">
<rect x="2" y="1" width="40" height="40" rx="20" fill="white"/>
<rect x="2.5" y="1.5" width="39" height="39" rx="19.5" stroke="#D0D5DD"/>
<path d="M21.375 27.875C21.375 28.0408 21.3092 28.1997 21.1919 28.3169C21.0747 28.4342 20.9158 28.5 20.75 28.5H15.75C15.5842 28.5 15.4253 28.4342 15.3081 28.3169C15.1908 28.1997 15.125 28.0408 15.125 27.875V14.125C15.125 13.9592 15.1908 13.8003 15.3081 13.6831C15.4253 13.5658 15.5842 13.5 15.75 13.5H20.75C20.9158 13.5 21.0747 13.5658 21.1919 13.6831C21.3092 13.8003 21.375 13.9592 21.375 14.125C21.375 14.2908 21.3092 14.4497 21.1919 14.5669C21.0747 14.6842 20.9158 14.75 20.75 14.75H16.375V27.25H20.75C20.9158 27.25 21.0747 27.3158 21.1919 27.4331C21.3092 27.5503 21.375 27.7092 21.375 27.875ZM29.9422 20.5578L26.8172 17.4328C26.6999 17.3155 26.5409 17.2497 26.375 17.2497C26.2091 17.2497 26.0501 17.3155 25.9328 17.4328C25.8155 17.5501 25.7497 17.7091 25.7497 17.875C25.7497 18.0409 25.8155 18.1999 25.9328 18.3172L27.9914 20.375H20.75C20.5842 20.375 20.4253 20.4408 20.3081 20.5581C20.1908 20.6753 20.125 20.8342 20.125 21C20.125 21.1658 20.1908 21.3247 20.3081 21.4419C20.4253 21.5592 20.5842 21.625 20.75 21.625H27.9914L25.9328 23.6828C25.8155 23.8001 25.7497 23.9591 25.7497 24.125C25.7497 24.2909 25.8155 24.4499 25.9328 24.5672C26.0501 24.6845 26.2091 24.7503 26.375 24.7503C26.5409 24.7503 26.6999 24.6845 26.8172 24.5672L29.9422 21.4422C30.0003 21.3841 30.0464 21.3152 30.0779 21.2393C30.1093 21.1635 30.1255 21.0821 30.1255 21C30.1255 20.9179 30.1093 20.8365 30.0779 20.7607C30.0464 20.6848 30.0003 20.6159 29.9422 20.5578Z" fill="#565E73"/>
</g>
<defs>
<filter id="filter0_d_87_439" x="0" y="0" width="44" height="44" filterUnits="userSpaceOnUse" color-interpolation-filters="sRGB">
<feFlood flood-opacity="0" result="BackgroundImageFix"/>
<feColorMatrix in="SourceAlpha" type="matrix" values="0 0 0 0 0 0 0 0 0 0 0 0 0 0 0 0 0 0 127 0" result="hardAlpha"/>
<feOffset dy="1"/>
<feGaussianBlur stdDeviation="1"/>
<feColorMatrix type="matrix" values="0 0 0 0 0.0627451 0 0 0 0 0.0941176 0 0 0 0 0.156863 0 0 0 0.05 0"/>
<feBlend mode="normal" in2="BackgroundImageFix" result="effect1_dropShadow_87_439"/>
<feBlend mode="normal" in="SourceGraphic" in2="effect1_dropShadow_87_439" result="shape"/>
</filter>
</defs>
</svg>
