<svg width="64" height="86" viewBox="0 0 64 86" fill="none" xmlns="http://www.w3.org/2000/svg">
<path d="M56.2211 39.0119C56.2373 40.7453 55.8806 42.7727 55.3132 44.7692C55.1511 45.3109 54.9728 45.4502 54.4541 45.0324C51.8279 43.0049 49.0558 41.1941 45.8947 40.0024C45.1976 39.7393 45.3435 39.2905 45.3435 38.8262C45.4084 32.6045 40.8045 27.4662 34.3688 26.6149C26.8955 25.6244 20.1032 31.2735 20.168 38.4702C20.1842 39.4452 19.9086 39.8786 18.9522 40.2655C16.0342 41.4417 13.4081 43.0823 11.025 45.0788C10.5225 45.4967 10.3928 45.4812 10.1821 44.8466C7.57212 36.5046 10.5225 27.0638 17.5094 21.5231C22.2592 17.7622 27.7223 15.7812 33.8824 16.1991C43.5603 16.8646 50.4824 21.5076 54.4379 30.0044C55.832 33.0223 56.2373 35.6689 56.2211 39.0119Z" fill="#F96619"/>
<path d="M31.6292 41.194C38.7134 41.1631 44.3548 42.8191 49.4775 46.1621C50.7419 46.9824 51.8929 47.911 52.9952 48.9015C53.3519 49.211 53.3519 49.4896 53.1249 49.8456C52.3306 51.1147 51.4228 52.2909 50.4825 53.4362C50.1097 53.9005 49.8017 53.6529 49.4937 53.3433C47.4997 51.3778 45.1654 49.861 42.5716 48.7158C37.7408 46.6109 32.7154 46.1311 27.5441 47.2145C23.0861 48.1586 19.2603 50.217 16.0344 53.2969C15.6129 53.6993 15.3373 53.7457 14.932 53.2969C13.9594 52.198 13.1164 51.0063 12.3221 49.7682C12.0789 49.3813 12.1924 49.1336 12.5166 48.8396C15.548 46.0692 19.0496 44.0727 22.9888 42.7417C26.0851 41.7512 29.23 41.1476 31.6292 41.194Z" fill="#24262D"/>
<path d="M32.7639 50.4337C37.384 50.5266 41.5502 51.7957 45.1328 54.6125C45.7326 55.0768 46.3 55.603 46.8673 56.0982C47.1267 56.3304 47.1591 56.5471 46.8836 56.8102C45.8136 57.8162 44.7437 58.8376 43.7062 59.8746C43.3009 60.277 42.9767 60.277 42.5715 59.8746C40.0263 57.3673 36.8652 56.0673 33.2664 55.9589C29.6352 55.8506 26.3605 56.9185 23.6209 59.2555C22.3889 60.3079 22.3889 60.3544 21.1568 59.24C20.2815 58.4507 19.4547 57.5995 18.5955 56.7947C18.1903 56.4078 18.5307 56.2066 18.7738 55.9744C20.476 54.3803 22.3889 53.0338 24.5773 52.0897C27.1711 50.9599 29.9432 50.4492 32.7639 50.4337Z" fill="#24262D"/>
<path d="M40.3183 63.0163C40.2372 63.1092 40.1562 63.233 40.0427 63.3413C37.7732 65.4771 35.5036 67.5975 33.2503 69.7333C32.8126 70.1357 32.5046 69.9654 32.1642 69.6249C30.381 67.907 28.5816 66.2045 26.7822 64.5021C26.3607 64.0997 25.923 63.7282 25.4853 63.3413C25.1935 63.0627 25.1286 62.8306 25.4853 62.5056C27.8845 60.3543 30.689 59.3947 33.9798 59.7507C36.2818 59.9983 38.2595 60.896 39.9292 62.4127C40.0751 62.5675 40.3021 62.7068 40.3183 63.0163Z" fill="#24262D"/>
</svg>
